<svg id="_003-shipped" data-name="003-shipped" xmlns="http://www.w3.org/2000/svg" width="39.081" height="24.721" viewBox="0 0 39.081 24.721">
  <g id="Grupo_32" data-name="Grupo 32" transform="translate(0 0)">
    <g id="Grupo_31" data-name="Grupo 31">
      <path id="Caminho_13" data-name="Caminho 13" d="M36.345,104.542l-1.012-4.048a.612.612,0,0,0,.484-.6v-.653a2.573,2.573,0,0,0-2.57-2.57h-4.61V95.327a1.266,1.266,0,0,0-1.265-1.265H3.875a1.266,1.266,0,0,0-1.265,1.265v11.1a.612.612,0,0,0,1.224,0v-11.1a.041.041,0,0,1,.041-.041h23.5a.041.041,0,0,1,.041.041v11.1a.612.612,0,0,0,1.224,0v-.694h7.222a2,2,0,0,1,1.9,1.387h-1.9a.612.612,0,0,0-.612.612v1.305a1.919,1.919,0,0,0,1.917,1.917h.694v2.692h-1.6a3.874,3.874,0,0,0-7.325,0h-.295v-4.61a.612.612,0,0,0-1.224,0v4.61h-12.7a3.874,3.874,0,0,0-7.325,0H3.875a.041.041,0,0,1-.041-.041v-1.346H6.486a.612.612,0,0,0,0-1.224H.612a.612.612,0,0,0,0,1.224h2V113.6a1.266,1.266,0,0,0,1.265,1.265H7.181c0,.014,0,.027,0,.041a3.875,3.875,0,0,0,7.751,0c0-.014,0-.027,0-.041H28.72c0,.014,0,.027,0,.041a3.875,3.875,0,0,0,7.751,0c0-.014,0-.027,0-.041h2a.612.612,0,0,0,.612-.612v-6.527A3.228,3.228,0,0,0,36.345,104.542ZM28.638,97.9h4.61a1.348,1.348,0,0,1,1.346,1.346v.041H28.638Zm0,6.609v-4h5.437l1,4ZM11.055,117.56a2.652,2.652,0,1,1,2.652-2.652A2.655,2.655,0,0,1,11.055,117.56Zm21.539,0a2.652,2.652,0,1,1,2.652-2.652A2.655,2.655,0,0,1,32.595,117.56Zm5.263-7.833h-.694a.694.694,0,0,1-.694-.694v-.694h1.387v1.387Z" transform="translate(0 -94.062)" fill="#ffa124"/>
    </g>
  </g>
  <g id="Grupo_34" data-name="Grupo 34" transform="translate(9.788 19.559)">
    <g id="Grupo_33" data-name="Grupo 33" transform="translate(0 0)">
      <path id="Caminho_14" data-name="Caminho 14" d="M129.537,350.6a1.27,1.27,0,1,0,1.27,1.27A1.272,1.272,0,0,0,129.537,350.6Z" transform="translate(-128.267 -350.597)" fill="#ffa124"/>
    </g>
  </g>
  <g id="Grupo_36" data-name="Grupo 36" transform="translate(31.296 19.559)">
    <g id="Grupo_35" data-name="Grupo 35" transform="translate(0 0)">
      <path id="Caminho_15" data-name="Caminho 15" d="M411.725,350.6a1.27,1.27,0,1,0,1.27,1.27A1.272,1.272,0,0,0,411.725,350.6Z" transform="translate(-410.455 -350.597)" fill="#ffa124"/>
    </g>
  </g>
  <g id="Grupo_38" data-name="Grupo 38" transform="translate(15.64 16.967)">
    <g id="Grupo_37" data-name="Grupo 37" transform="translate(0 0)">
      <path id="Caminho_16" data-name="Caminho 16" d="M215.02,316.393h-9.178a.615.615,0,1,0,0,1.229h9.178a.615.615,0,0,0,0-1.229Z" transform="translate(-205.227 -316.393)" fill="#ffa124"/>
    </g>
  </g>
  <g id="Grupo_40" data-name="Grupo 40" transform="translate(1.311 14.356)">
    <g id="Grupo_39" data-name="Grupo 39" transform="translate(0 0)">
      <path id="Caminho_17" data-name="Caminho 17" d="M25.584,282.188H17.717a.615.615,0,0,0,0,1.229h7.867a.615.615,0,0,0,0-1.229Z" transform="translate(-17.102 -282.188)" fill="#ffa124"/>
    </g>
  </g>
  <g id="Grupo_42" data-name="Grupo 42" transform="translate(11.079 5.864)">
    <g id="Grupo_41" data-name="Grupo 41" transform="translate(0 0)">
      <path id="Caminho_18" data-name="Caminho 18" d="M155.6,171.2a.615.615,0,0,0-.869,0l-5.466,5.466-2.843-2.843a.615.615,0,0,0-.869.869l3.278,3.278a.615.615,0,0,0,.869,0l5.9-5.9A.615.615,0,0,0,155.6,171.2Z" transform="translate(-145.37 -171.023)" fill="#ffa124"/>
    </g>
  </g>
</svg>
