<svg id="Grupo_713" data-name="Grupo 713" xmlns="http://www.w3.org/2000/svg" xmlns:xlink="http://www.w3.org/1999/xlink" width="39.238" height="36" viewBox="0 0 39.238 36">
  <defs>
    <clipPath id="clip-path">
      <rect id="Retângulo_140" data-name="Retângulo 140" width="39.238" height="36" fill="#00AAA6"/>
    </clipPath>
  </defs>
  <g id="Grupo_202" data-name="Grupo 202" clip-path="url(#clip-path)">
    <path id="Caminho_179" data-name="Caminho 179" d="M39.238,18a18,18,0,1,1-36,0,1.01,1.01,0,0,1,.108-.43L1.572,19.343a.991.991,0,0,1-.645.269.992.992,0,0,1-.645-.269.877.877,0,0,1,0-1.29L3.56,14.776a.742.742,0,0,1,.215-.161.907.907,0,0,1,.752-.054,1.35,1.35,0,0,1,.376.215l3.278,3.278a.877.877,0,0,1,0,1.29.908.908,0,0,1-1.289,0L5.119,17.57a1.014,1.014,0,0,1,.108.43A16.173,16.173,0,1,0,21.4,1.827,15.881,15.881,0,0,0,9.847,6.716a.912.912,0,0,1-1.29-1.29A17.86,17.86,0,0,1,39.238,18ZM26.449,11.445,14.467,23.427a.877.877,0,0,0,0,1.29.908.908,0,0,0,1.289,0L27.739,12.734a.912.912,0,1,0-1.289-1.29Zm-7.254.161a3.47,3.47,0,0,1,0,4.89,3.38,3.38,0,0,1-2.418,1.021A3.292,3.292,0,0,1,14.36,16.5a3.47,3.47,0,0,1,0-4.89A3.4,3.4,0,0,1,19.2,11.606ZM17.852,12.9a1.6,1.6,0,1,0,0,2.257A1.547,1.547,0,0,0,17.852,12.9Zm7.9,5.642a3.418,3.418,0,0,1,2.418,1.021,3.47,3.47,0,0,1,0,4.89,3.373,3.373,0,0,1-4.836,0,3.47,3.47,0,0,1,0-4.89,3.209,3.209,0,0,1,2.418-1.021m1.129,2.31a1.612,1.612,0,1,0,0,2.257,1.547,1.547,0,0,0,0-2.257" transform="translate(0 0)" fill="#AB3E00"/>
  </g>
</svg>
