<svg xmlns="http://www.w3.org/2000/svg" width="36.589" height="29.872" viewBox="0 0 36.589 29.872">
  <g id="_002-credit-card" data-name="002-credit-card" transform="translate(1 0)">
    <g id="Grupo_76" data-name="Grupo 76" transform="translate(-1 0)">
      <g id="Grupo_75" data-name="Grupo 75" transform="translate(0)">
        <path id="Caminho_35" data-name="Caminho 35" d="M264.144,248.987H273.9a.576.576,0,0,0,.61-.61v-5.487a.576.576,0,0,0-.61-.61h-9.754a.576.576,0,0,0-.61.61v5.487A.576.576,0,0,0,264.144,248.987Zm.61-5.487h8.535v4.267h-8.535Z" transform="translate(-244.635 -228.26)" fill="#ffa124"/>
        <path id="Caminho_36" data-name="Caminho 36" d="M33.744,209.366h4.877a.61.61,0,1,0,0-1.219H33.744a.61.61,0,1,0,0,1.219Z" transform="translate(-30.695 -196.564)" fill="#ffa124"/>
        <path id="Caminho_37" data-name="Caminho 37" d="M136.144,209.366h4.877a.61.61,0,1,0,0-1.219h-4.877a.61.61,0,1,0,0,1.219Z" transform="translate(-125.78 -196.564)" fill="#ffa124"/>
        <path id="Caminho_38" data-name="Caminho 38" d="M33.744,243.5h7.925a.61.61,0,0,0,0-1.219H33.744a.61.61,0,0,0,0,1.219Z" transform="translate(-30.695 -228.259)" fill="#ffa124"/>
        <path id="Caminho_39" data-name="Caminho 39" d="M180.638,242.28H178.81a.61.61,0,0,0,0,1.219h1.829a.61.61,0,0,0,0-1.219Z" transform="translate(-165.398 -228.259)" fill="#ffa124"/>
        <path id="Caminho_40" data-name="Caminho 40" d="M35.029,52.476a2.271,2.271,0,0,0-1.646-.914l-1.463-.177V48.452a2.446,2.446,0,0,0-2.438-2.438H1.438A2.446,2.446,0,0,0-1,48.452V67.961A2.448,2.448,0,0,0,.747,70.3,2.373,2.373,0,0,0,2.9,72.716l28.165,3.17h.244a2.441,2.441,0,0,0,2.438-2.073l1.829-19.569A2.37,2.37,0,0,0,35.029,52.476ZM.219,50.281H30.7v3.658H.219Zm1.219-3.048H29.481A1.223,1.223,0,0,1,30.7,48.452v.61H.219v-.61A1.223,1.223,0,0,1,1.438,47.233ZM.219,67.961v-12.8H30.7v12.8a1.223,1.223,0,0,1-1.219,1.219H1.439A1.223,1.223,0,0,1,.219,67.961ZM34.358,54,32.53,73.569a1.23,1.23,0,0,1-1.341,1.1L3.084,71.5a1.232,1.232,0,0,1-1.1-1.1H29.481a2.446,2.446,0,0,0,2.438-2.438V52.537l1.4.122a1.042,1.042,0,0,1,.792.427A1.234,1.234,0,0,1,34.358,54Z" transform="translate(1 -46.014)" fill="#ffa124"/>
      </g>
    </g>
  </g>
</svg>
