<?xml version="1.0" encoding="UTF-8"?>
<svg id="Camada_1" data-name="Camada 1" xmlns="http://www.w3.org/2000/svg" viewBox="0 0 39 26">
  <defs>
    <style>
      .cls-1 {
        fill: none;
        stroke: #08b1a8;
        stroke-miterlimit: 10;
      }

      .cls-2 {
        fill: #08b1a8;
      }
    </style>
  </defs>
  <path class="cls-2" d="M17.8,18.65c0-.41,.15-.76,.44-1.05,.29-.29,.65-.43,1.07-.43s.78,.14,1.07,.43,.43,.64,.43,1.06-.14,.78-.43,1.07c-.29,.29-.64,.43-1.07,.43s-.78-.14-1.07-.43c-.29-.29-.44-.64-.44-1.06Zm.89-2.7c-.12-1.66-.29-3.42-.5-5.27-.22-1.85-.33-2.9-.33-3.14,0-.58,.12-1.01,.36-1.28,.24-.27,.62-.4,1.14-.4s.9,.13,1.13,.4c.24,.27,.35,.69,.35,1.28,0,.23-.12,1.27-.35,3.13-.23,1.85-.42,3.62-.56,5.28h-1.25Z"/>
  <rect class="cls-1" x="10.57" y="4.25" width="17.51" height="17.51" rx="4" ry="4" transform="translate(14.86 -9.85) rotate(45)"/>
</svg>