<?xml version="1.0" encoding="UTF-8"?>
<svg id="Camada_1" data-name="Camada 1" xmlns="http://www.w3.org/2000/svg" viewBox="0 0 39 26">
  <defs>
    <style>
      .cls-1 {
        stroke: #08b1a8;
        stroke-miterlimit: 10;
        stroke-width: .2px;
      }

      .cls-1, .cls-2 {
        fill: #08b1a8;
      }
    </style>
  </defs>
  <path class="cls-2" d="M18.73,11.09c.75,0,.75,1.17,0,1.17s-.75-1.17,0-1.17Z"/>
  <path class="cls-2" d="M17.1,11.09c.75,0,.75,1.17,0,1.17s-.75-1.17,0-1.17Z"/>
  <path class="cls-2" d="M15.48,11.09c.75,0,.75,1.17,0,1.17s-.75-1.17,0-1.17Z"/>
  <path class="cls-1" d="M9.92,15.67l-2.28,2.28,5.37,5.37,2.28-2.28c-1.13-1.13-4.25-4.25-5.37-5.37Zm13.53-.89c0-.69-.56-1.25-1.25-1.25-9.35,0-7.24-.66-10.9,2.53l3.53,3.53h6.95c1.7,0,1.85-.57,7.94-6.66,1.32-1.32-.67-3.32-2-2-4.05,4.05-3.58,3.46-3.58,3.84,0,1.08-.88,1.95-1.95,1.95h-3.97c-.46,0-.46-.7,0-.7,3.41,0,5.23,.39,5.23-1.25Zm6.77-1.35c-6.05,6.05-6.39,6.86-8.43,6.86-7.51,0-6.43-.17-5.75,.5,.34,.34,.15,.34-2.77,3.27-.14,.14-.36,.14-.49,0-6.33-6.33-5.97-5.9-5.97-6.11s-.12-.03,2.88-3.02c.33-.33,.66,.16,1.13,.64,2.35-2.05,2.29-2.01,2.31-2.01,0-11.84-.15-11.44,.35-11.44,17.67,0,16.72-.15,16.72,.35,0,8.57-.02,7.93,.04,7.98,.83,.83,.82,2.16,0,2.99Zm-6.34,.37c3.2-3.2,3.94-4.46,5.6-3.83V2.82H13.82V13.1c.67-.31,1.16-.27,1.67-.27,6.82,0,7.63-.35,8.4,.96Z"/>
  <path class="cls-2" d="M25.23,8.48l-.4-.4s-.04-.01-.05,0c-.35,.45-.9,.72-1.47,.72-.51,0-.99-.21-1.34-.57v-.99l.77-.77c.14-.14,.12-.37-.04-.48-.63-.42-1.45-.42-2.07,0-.16,.11-.18,.34-.04,.48l.77,.77v.99c-.35,.36-.84,.57-1.34,.57-.58,0-1.12-.27-1.47-.72-.01-.02-.04-.02-.05,0l-.4,.4s-.01,.03,0,.04c.47,.57,1.18,.9,1.92,.9,.61,0,1.2-.23,1.66-.63,.45,.4,1.04,.63,1.66,.63,.75,0,1.45-.33,1.92-.9,.01-.01,0-.03,0-.04"/>
</svg>