<?xml version="1.0" encoding="UTF-8"?>
<svg id="Camada_1" data-name="Camada 1" xmlns="http://www.w3.org/2000/svg" viewBox="0 0 39 26">
  <defs>
    <style>
      .cls-1 {
        fill: #08b1a8;
      }
    </style>
  </defs>
  <path class="cls-1" d="M14.7,23.83h11.46c1.48,0,2.68-1.2,2.68-2.68v-7.34c0-1.36-1.02-2.48-2.33-2.66v-2.9c0-3.35-2.73-6.08-6.08-6.08s-6.08,2.73-6.08,6.08v2.9c-1.31,.17-2.33,1.3-2.33,2.66v7.34c0,1.48,1.2,2.68,2.68,2.68Zm-1.68-10.02c0-.93,.75-1.68,1.68-1.68h11.46c.93,0,1.68,.75,1.68,1.68v7.34c0,.93-.75,1.68-1.68,1.68H14.7c-.93,0-1.68-.75-1.68-1.68v-7.34ZM20.43,3.17c2.8,0,5.08,2.28,5.08,5.08v2.87h-.8v-2.87c0-2.36-1.92-4.28-4.28-4.28s-4.28,1.92-4.28,4.28v2.87h-.8v-2.87c0-2.8,2.28-5.08,5.08-5.08Zm3.27,7.95h-6.55v-2.87c0-1.81,1.47-3.27,3.27-3.27s3.27,1.47,3.27,3.27v2.87Z"/>
  <path class="cls-1" d="M19.43,20.2h2c.22,0,.4-.18,.4-.4v-4.64c0-.22-.18-.4-.4-.4h-2c-.22,0-.4,.18-.4,.4v4.64c0,.22,.18,.4,.4,.4Zm.4-4.64h1.2v3.83h-1.2v-3.83Z"/>
</svg>