<?xml version="1.0" encoding="UTF-8"?>
<svg id="Camada_1" data-name="Camada 1" xmlns="http://www.w3.org/2000/svg" viewBox="0 0 39 26">
  <defs>
    <style>
      .cls-1 {
        fill: #08b1a8;
      }
    </style>
  </defs>
  <path class="cls-1" d="M16.1,10.24c1.19,0,2.16-1,2.16-2.23,0-1.23-.97-2.23-2.16-2.23s-2.16,1-2.16,2.23c0,1.23,.97,2.23,2.16,2.23Zm0-3.34c.6,0,1.08,.5,1.08,1.11s-.48,1.11-1.08,1.11-1.08-.5-1.08-1.11,.48-1.11,1.08-1.11Z"/>
  <path class="cls-1" d="M22.81,6.02L14.06,14.77c-.51,.51,.26,1.28,.77,.77L23.58,6.79c.51-.51-.26-1.28-.77-.77Z"/>
  <path class="cls-1" d="M21.54,11.32c-1.19,0-2.16,1-2.16,2.23,0,1.23,.97,2.23,2.16,2.23s2.16-1,2.16-2.23c0-1.23-.97-2.23-2.16-2.23Zm0,3.34c-.6,0-1.08-.5-1.08-1.11s.48-1.11,1.08-1.11,1.08,.5,1.08,1.11-.48,1.11-1.08,1.11Z"/>
  <path class="cls-1" d="M25.91,16.41c1.23-1.54,1.96-3.5,1.96-5.63,0-5-4.05-9.05-9.05-9.05S9.76,5.78,9.76,10.78c0,2.13,.73,4.08,1.96,5.63l-2.34,4.05c-.25,.37,.05,.87,.51,.81l3.18-.46,1.19,2.97c.15,.4,.72,.46,.94,.08l2.37-4.11c.41,.06,.82,.08,1.24,.08s.83-.03,1.24-.08l2.37,4.11c.22,.38,.79,.33,.94-.08l1.19-2.97,3.18,.46c.45,.06,.75-.44,.51-.81l-2.34-4.05Zm-11.07,6.01l-.95-2.37c-.09-.23-.32-.35-.56-.32l-2.53,.36,1.65-2.86c1.11,1.09,2.49,1.9,4.04,2.31l-1.66,2.88Zm3.98-3.68c-2.2,0-4.19-.89-5.63-2.33-1.44-1.44-2.33-3.43-2.33-5.63,0-4.39,3.56-7.96,7.96-7.96s7.96,3.56,7.96,7.96c0,2.2-.89,4.19-2.33,5.63-1.44,1.44-3.43,2.33-5.63,2.33Zm5.49,.98c-.23-.03-.47,.09-.56,.32l-.95,2.37-1.66-2.88c1.55-.41,2.94-1.22,4.04-2.31l1.65,2.86-2.53-.36Z"/>
</svg>